<svg width="13" height="15" viewBox="0 0 13 15" fill="none" xmlns="http://www.w3.org/2000/svg">
<path fill-rule="evenodd" clip-rule="evenodd" d="M12.5119 12.099L11.8066 5.65914C11.7697 5.39724 11.5467 5.18812 11.2499 5.18812H9.89554V3.89665C9.89554 2.23839 8.46734 0.894775 6.70462 0.894775C4.94194 0.894775 3.51371 2.23836 3.51371 3.89665V5.18812H1.97401C1.69563 5.18812 1.45486 5.39724 1.41723 5.65914L0.69354 12.099C0.638145 12.6576 0.84197 13.2335 1.23186 13.6524C1.64021 14.0713 2.21475 14.3158 2.80848 14.3158H10.3777C10.9714 14.3158 11.5467 14.0713 11.9543 13.6698C12.3819 13.2515 12.5857 12.6756 12.5118 12.099H12.5119ZM4.69267 3.87079C4.69267 2.78606 5.6278 1.91152 6.78781 1.91152C7.94782 1.91152 8.88295 2.78601 8.88295 3.87079V5.16511H4.69285L4.69267 3.87079ZM11.1704 12.9805C10.984 13.1751 10.704 13.2991 10.424 13.2991H2.81198C2.53202 13.2991 2.25204 13.175 2.04706 12.9805C1.84208 12.7684 1.74852 12.5027 1.78566 12.237L2.45702 6.18186H10.7783L11.4311 12.237C11.4504 12.502 11.3568 12.7677 11.1704 12.9805H11.1704Z" fill="white"/>
</svg>
